<svg width="63" height="16" xmlns="http://www.w3.org/2000/svg"><g fill="#FFF" fill-rule="nonzero"><path d="M14.16 14.79l-.74-1.99s-1.2 1.33-2.98 1.33c-1.59 0-2.71-1.37-2.71-3.57 0-2.8 1.42-3.81 2.82-3.81 2.02 0 2.67 1.3 3.22 2.97L14.5 12c.74 2.22 2.12 4 6.09 4 2.84 0 4.77-.87 4.77-3.15 0-1.85-1.05-2.81-3.03-3.27l-1.47-.32c-1-.23-1.3-.64-1.3-1.32 0-.78.61-1.24 1.62-1.24 1.1 0 1.7.42 1.8 1.4l2.3-.28c-.2-2.05-1.62-2.9-3.96-2.9-2.06 0-4.08.78-4.08 3.27 0 1.55.75 2.53 2.66 3l1.56.36c1.17.27 1.56.75 1.56 1.41 0 .85-.83 1.19-2.39 1.19-2.32 0-3.28-1.21-3.83-2.88L16.04 9c-.96-2.97-2.5-4.07-5.56-4.07-3.37 0-5.16 2.13-5.16 5.74 0 3.47 1.79 5.34 5 5.34 2.6 0 3.84-1.21 3.84-1.21zM4.1 13.79c-.24.07-.47.11-.76.11-.55 0-.94-.25-.94-.92V.4H0v13.15C0 15.28 1.19 16 2.58 16c.46 0 .9-.07 1.44-.2l.07-2.01zM33.5 13.32c-.61.41-1.13.62-1.84.62-.9 0-1.4-.46-1.4-1.6V6.93h3.27v-1.9h-3.25V2.46l-2.51.3v2.27h-1.59v1.9h1.59v5.92c0 2.13 1.26 3.15 3.3 3.15 1.1 0 2.1-.2 2.88-.65l-.45-2.03zM35.6 13.95c0 .9.7 1.64 1.6 1.64.96 0 1.66-.73 1.66-1.64 0-.93-.7-1.64-1.65-1.64-.91 0-1.62.7-1.62 1.64zM41.64 6.81v8.78h2.43V6.81h2.73V4.92h-2.73v-.97c0-1.46.62-1.92 1.64-1.92.72 0 1.2.16 1.76.46l.4-2.03A5.47 5.47 0 0045.52 0c-2.04 0-3.89.97-3.89 3.86v1.06H40.1v1.9h1.55zM56.41 6.9C56.13 5.15 55 4.51 53.5 4.51s-2.78.68-3.34 2.34l-.3-2.08h-1.99V15.6h2.46V9.48c0-2.09 1.07-2.88 2.22-2.88 1.19 0 1.68.8 1.68 2.08v6.91h2.43V9.45c0-2.06 1.1-2.85 2.24-2.85 1.17 0 1.66.8 1.66 2.08v6.91H63V7.82c0-2.32-1.35-3.3-3.15-3.3-1.52 0-2.88.67-3.44 2.38z"/></g></svg>