<svg xmlns="http://www.w3.org/2000/svg" viewBox="0 0 512 512"><defs><linearGradient x1="0%" y1="0%" x2="100%" y2="100%" id="a"><stop stop-color="#203" offset="0%"/><stop stop-color="#302" offset="100%"/></linearGradient></defs><g fill="none" fill-rule="evenodd"><path d="M162.4 0h185.5c57 0 77.8 6 98.6 17.1A116.3 116.3 0 01495 65.5l.7 1.2c10.7 20.5 16.4 41.5 16.4 97.4v183.8c0 57-6 77.8-17.1 98.6a116.3 116.3 0 01-48.4 48.4l-1.2.7c-20.5 10.7-41.5 16.4-97.4 16.4H164.1c-57 0-77.8-6-98.6-17.1A116.3 116.3 0 0117 446.5l-.7-1.2C5.8 425 .1 404.3 0 349.6V164.1c0-57 6-77.8 17.1-98.6A116.3 116.3 0 0165.5 17l1.2-.7C87 5.8 107.7.1 162.4 0z" fill="url(#a)"/><g fill="#B933FF" fill-opacity=".6"><path d="M64 256.4l72.2 86.2 207.5-174.2L256.3 95z"/><path d="M448 256.4L255.7 95l-87.4 73.4 207.5 174.2z"/><path d="M312.5 417.6V142.5L256 95l-56.5 47.5v275.1z"/></g></g></svg>